<svg width="15" height="14" viewBox="0 0 15 14" fill="none" xmlns="http://www.w3.org/2000/svg">
<path fill-rule="evenodd" clip-rule="evenodd" d="M2.86873 0.392444C2.85258 0.327076 2.8237 0.265536 2.78373 0.211351C2.74416 0.156792 2.69421 0.110584 2.63674 0.0753798C2.57927 0.0401752 2.51542 0.0166671 2.44884 0.00620483C2.38226 -0.00425743 2.31427 -0.00146789 2.24877 0.0144133C2.18328 0.0302945 2.12156 0.0589547 2.06717 0.0987488C1.29669 0.669048 0.623723 1.36045 0.0744525 2.14606C0.00698134 2.25707 -0.0157549 2.38958 0.0108528 2.51673C0.0374605 2.64388 0.111421 2.75616 0.217742 2.8308C0.324062 2.90544 0.454787 2.93686 0.583415 2.91869C0.712044 2.90052 0.828951 2.83412 0.910438 2.73296C1.39724 2.04004 1.99297 1.43048 2.67454 0.92791C2.72883 0.888089 2.77474 0.837945 2.80962 0.780354C2.8445 0.722762 2.86768 0.658853 2.87783 0.592288C2.88797 0.525724 2.88488 0.457812 2.86873 0.392444ZM14.0236 2.94203C14.1573 2.96506 14.2947 2.93405 14.4056 2.8558C14.5136 2.77768 14.5868 2.66054 14.6097 2.52928C14.6327 2.39802 14.6035 2.26299 14.5285 2.15289C13.9792 1.36728 13.3062 0.675877 12.5357 0.105578C12.4263 0.0331154 12.2933 0.00543564 12.1641 0.0282559C12.0349 0.0510762 11.9193 0.122653 11.8414 0.228203C11.7634 0.333752 11.729 0.465211 11.7452 0.595426C11.7614 0.725641 11.8269 0.844666 11.9284 0.927915C12.6099 1.43048 13.2057 2.04005 13.6925 2.73296C13.7708 2.84379 13.8899 2.91899 14.0236 2.94203ZM7.30147 0.433143C5.95969 0.433143 4.64805 0.83107 3.53244 1.57659C2.41684 2.32212 1.5474 3.38174 1.03408 4.62145C0.520755 5.86116 0.38662 7.22525 0.648637 8.5412C0.910653 9.85715 1.55705 11.0658 2.50607 12.0144C3.45509 12.9629 4.6641 13.6087 5.98018 13.8701C7.29626 14.1314 8.66029 13.9966 9.89973 13.4826C11.1392 12.9687 12.1984 12.0987 12.9433 10.9827C13.6883 9.86677 14.0856 8.55493 14.0849 7.21315C14.0822 5.41522 13.3665 3.69176 12.0949 2.42075C10.8232 1.14974 9.0994 0.434948 7.30147 0.433143ZM7.30147 12.9729C6.16229 12.9729 5.0487 12.6351 4.10151 12.0022C3.15432 11.3693 2.41608 10.4698 1.98014 9.41732C1.54419 8.36486 1.43013 7.20676 1.65237 6.08948C1.87461 4.97219 2.42318 3.9459 3.2287 3.14038C4.03421 2.33486 5.06051 1.7863 6.17779 1.56406C7.29508 1.34182 8.45317 1.45588 9.50563 1.89182C10.5581 2.32776 11.4576 3.06601 12.0905 4.0132C12.7234 4.96039 13.0612 6.07398 13.0612 7.21315C13.0603 8.74046 12.4532 10.205 11.3732 11.2849C10.2933 12.3649 8.82877 12.972 7.30147 12.9729ZM7.66316 7.57824L10.0756 5.16584C10.172 5.06946 10.2261 4.93874 10.2261 4.80244C10.2261 4.66614 10.172 4.53542 10.0756 4.43904C9.9792 4.34266 9.84848 4.28852 9.71218 4.28852C9.57587 4.28852 9.44516 4.34266 9.34878 4.43904L7.30146 6.48635L5.25415 4.43904C5.15777 4.34266 5.02705 4.28852 4.89075 4.28852C4.75445 4.28852 4.62374 4.34266 4.52736 4.43904C4.43098 4.53542 4.37683 4.66614 4.37683 4.80244C4.37683 4.93874 4.43098 5.06946 4.52736 5.16584L6.93977 7.57824C7.03574 7.67409 7.16583 7.72793 7.30146 7.72793C7.4371 7.72793 7.56719 7.67409 7.66316 7.57824Z" fill="#D2C8C2"/>
</svg>
