<svg width="7" height="12" viewBox="0 0 7 12" fill="none" xmlns="http://www.w3.org/2000/svg">
<path d="M6.80998 5.47129L1.50759 0.18961C1.38495 0.0673526 1.22124 0 1.04668 0C0.872122 0 0.708412 0.0673526 0.585774 0.18961L0.19529 0.57848C-0.0588001 0.831872 -0.0588001 1.24371 0.19529 1.49671L4.64783 5.93195L0.19035 10.3721C0.0677123 10.4944 0 10.6573 0 10.8311C0 11.0051 0.0677123 11.1681 0.19035 11.2904L0.580834 11.6792C0.703568 11.8015 0.867182 11.8688 1.04174 11.8688C1.2163 11.8688 1.38001 11.8015 1.50265 11.6792L6.80998 6.39271C6.9329 6.27006 7.00042 6.10631 7.00003 5.93224C7.00042 5.75749 6.9329 5.59384 6.80998 5.47129Z" fill="#5B5551"/>
</svg>
