<svg width="27" height="20" viewBox="0 0 27 20" fill="none" xmlns="http://www.w3.org/2000/svg">
<path d="M25.4241 8.11174L25.4662 8.11996H7.44025L13.1069 3.04357C13.3844 2.79573 13.5366 2.45999 13.5366 2.10761C13.5366 1.75523 13.3844 1.42184 13.1069 1.17342L12.2252 0.384875C11.9479 0.137036 11.5785 0 11.1845 0C10.7902 0 10.4206 0.136057 10.1433 0.383896L0.429487 9.0659C0.151124 9.31472 -0.00108919 9.64615 5.86761e-06 9.99872C-0.00108919 10.3533 0.151124 10.6849 0.429487 10.9333L10.1433 19.6161C10.4206 19.8637 10.79 20 11.1845 20C11.5785 20 11.9479 19.8635 12.2252 19.6161L13.1069 18.8275C13.3844 18.5801 13.5366 18.2496 13.5366 17.8973C13.5366 17.5451 13.3844 17.2321 13.1069 16.9844L7.3763 11.8796H25.4443C26.2562 11.8796 26.9384 11.2542 26.9384 10.5289V9.41358C26.9384 8.68827 26.236 8.11174 25.4241 8.11174Z" fill="white"/>
</svg>
